<svg xmlns="http://www.w3.org/2000/svg" viewBox="0 0 640 400" fill="none"><path d="M57 200 Q118 171 151 150 L133 121 Q128 110 141 113 L195 133 L188 88 Q187 76 200 83 L252 115 L274 65 Q279 52 291 70 L328 104 L367 63 Q377 54 381 72 L398 111 L444 89 Q460 82 456 98 L446 131 L498 121 Q516 118 506 135 L485 162 L535 157 Q549 157 542 172 L526 193 Q554 193 563 200 Q551 211 526 210 L542 230 Q550 245 535 246 L485 239 L506 265 Q516 282 498 279 L446 269 L456 301 Q460 318 444 311 L398 290 L381 328 Q377 346 367 337 L328 296 L291 330 Q279 348 274 335 L252 285 L200 317 Q187 324 188 312 L195 267 L141 287 Q128 290 133 279 L151 250 Q118 229 57 200 Z" fill="#99582A" stroke="#432818" stroke-width="7" stroke-linejoin="round"/><g stroke="#432818" stroke-linecap="round" stroke-linejoin="round"><path d="M64 200 H552 Q581 200 607 213" stroke-width="10"/><path d="M151 200 Q154 167 151 150 M220 200 Q221 163 195 133 M287 200 Q292 157 252 115 M353 200 Q357 152 328 104 M415 200 Q423 155 398 111 M482 200 Q491 178 485 162 M151 200 Q154 232 151 250 M220 200 Q221 237 195 267 M287 200 Q292 243 252 285 M353 200 Q357 248 328 296 M415 200 Q423 245 398 290 M482 200 Q491 222 485 239" stroke-width="7"/></g></svg>
